<svg width="132" height="132" viewBox="0 0 132 132" fill="none" xmlns="http://www.w3.org/2000/svg">
<path d="M105.964 74.3363C107.237 73.351 108.268 72.0872 108.977 70.6419C109.686 69.1966 110.055 67.6081 110.055 65.9983C110.055 64.3884 109.686 62.7999 108.977 61.3546C108.268 59.9093 107.237 58.6456 105.964 57.6603C89.4764 44.9067 71.0678 34.8522 51.4263 27.8723L47.8348 26.5963C40.9708 24.1598 33.7163 28.8018 32.7868 35.8913C30.1908 55.8787 30.1908 76.1179 32.7868 96.1053C33.7218 103.195 40.9708 107.837 47.8348 105.4L51.4263 104.124C71.0678 97.1444 89.4764 87.0898 105.964 74.3363Z" fill="white" fill-opacity="0.85"/>
</svg>
